<?xml version="1.0" encoding="utf-8"?>
<!-- Generator: Adobe Illustrator 15.1.0, SVG Export Plug-In . SVG Version: 6.00 Build 0)  -->
<!DOCTYPE svg PUBLIC "-//W3C//DTD SVG 1.1//EN" "http://www.w3.org/Graphics/SVG/1.1/DTD/svg11.dtd">
<svg version="1.1" id="レイヤー_1" xmlns="http://www.w3.org/2000/svg" xmlns:xlink="http://www.w3.org/1999/xlink" x="0px"
	 y="0px" width="595.279px" height="841.89px" viewBox="0 0 595.279 841.89" enable-background="new 0 0 595.279 841.89"
	 xml:space="preserve">
<g id="レイヤー_1_1_">
	<path fill="none" stroke="#000000" stroke-miterlimit="10" d="M186.086,138.943c0,0-2.94-53.896-53.896-53.896
		c-50.957,0-46.547,46.546-46.547,46.546s2.156,51.301,51.3,51.301c49.144,0,46.203,46.202,46.203,46.202
		s-0.293,41.303-41.304,41.303c-41.009,0-49.83-44.242-49.83-44.242"/>
	<path fill="none" stroke="#000000" stroke-miterlimit="10" d="M295.838,85.047c0,0-82.314-2.94-82.314,0
		c0,2.939-5.879,177.368,0,177.368s0-96.034,0-96.034s35.277-9.799,82.314,0"/>
	<path fill="none" stroke="#000000" stroke-miterlimit="10" d="M331.116,262.415V83.74h41.157c0,0,38.217-2.613,42.136,32.664
		c3.921,35.278-40.177,27.438-41.647,29.397c-1.47,1.96-41.646,0.98-41.646,0.98"/>
	<path fill="none" stroke="#000000" stroke-miterlimit="10" d="M523.182,130.124c0,0,0-46.057-45.077-45.077
		c-45.076,0.979-39.198,45.077-39.198,45.077l-0.251,80.354c0,0,6.857,30.377,42.262,30.377c35.405,0,42.265-34.297,42.265-34.297"
		/>
</g>
</svg>
