<?xml version="1.0" encoding="utf-8"?>
<!-- Generator: Adobe Illustrator 15.1.0, SVG Export Plug-In . SVG Version: 6.00 Build 0)  -->
<!DOCTYPE svg PUBLIC "-//W3C//DTD SVG 1.1 Tiny//EN" "http://www.w3.org/Graphics/SVG/1.1/DTD/svg11-tiny.dtd">
<svg version="1.1" baseProfile="tiny" id="レイヤー_1"
	 xmlns="http://www.w3.org/2000/svg" xmlns:xlink="http://www.w3.org/1999/xlink" x="0px" y="0px" width="595.279px"
	 height="841.89px" viewBox="0 0 595.279 841.89" overflow="inherit" xml:space="preserve">
<line fill="none" stroke="#000000" stroke-miterlimit="10" x1="140.077" y1="229.445" x2="81.577" y2="170.945"/>
<line fill="none" stroke="#000000" stroke-miterlimit="10" x1="81.577" y1="170.945" x2="30.077" y2="222.445"/>
<line fill="none" stroke="#000000" stroke-miterlimit="10" x1="30.077" y1="222.445" x2="80.327" y2="272.695"/>
<line fill="none" stroke="#000000" stroke-miterlimit="10" x1="80.327" y1="272.695" x2="141.077" y2="333.445"/>
<line fill="none" stroke="#000000" stroke-miterlimit="10" x1="141.077" y1="333.445" x2="86.202" y2="388.32"/>
<line fill="none" stroke="#000000" stroke-miterlimit="10" x1="86.202" y1="388.32" x2="44.421" y2="346.539"/>
<line fill="none" stroke="#000000" stroke-miterlimit="10" x1="189.077" y1="388.32" x2="189.077" y2="170.945"/>
<line fill="none" stroke="#000000" stroke-miterlimit="10" x1="189.077" y1="170.945" x2="275.077" y2="170.945"/>
<line fill="none" stroke="#000000" stroke-miterlimit="10" x1="189.077" y1="272.695" x2="244.077" y2="272.695"/>
<line fill="none" stroke="#000000" stroke-miterlimit="10" x1="300.077" y1="170.945" x2="300.077" y2="388.32"/>
<line fill="none" stroke="#000000" stroke-miterlimit="10" x1="300.077" y1="170.945" x2="373.077" y2="170.945"/>
<line fill="none" stroke="#000000" stroke-miterlimit="10" x1="373.077" y1="170.945" x2="415.827" y2="213.695"/>
<line fill="none" stroke="#000000" stroke-miterlimit="10" x1="415.827" y1="213.695" x2="375.077" y2="254.445"/>
<line fill="none" stroke="#000000" stroke-miterlimit="10" x1="375.077" y1="254.445" x2="300.077" y2="254.445"/>
<line fill="none" stroke="#000000" stroke-miterlimit="10" x1="570.077" y1="241.445" x2="491.827" y2="163.195"/>
<line fill="none" stroke="#000000" stroke-miterlimit="10" x1="491.827" y1="163.195" x2="417.327" y2="237.695"/>
<line fill="none" stroke="#000000" stroke-miterlimit="10" x1="417.327" y1="237.695" x2="417.327" y2="314.445"/>
<line fill="none" stroke="#000000" stroke-miterlimit="10" x1="417.327" y1="314.445" x2="487.577" y2="384.695"/>
<line fill="none" stroke="#000000" stroke-miterlimit="10" x1="487.577" y1="384.695" x2="566.452" y2="305.82"/>
</svg>
